<svg width="16" height="16" viewBox="0 0 16 16" fill="none" xmlns="http://www.w3.org/2000/svg">
<g clip-path="url(#clip0_9_69)">
<path d="M7.34469 1.87602C7.37325 1.72309 7.4544 1.58496 7.57408 1.48557C7.69377 1.38617 7.84444 1.33176 8.00002 1.33176C8.1556 1.33176 8.30627 1.38617 8.42596 1.48557C8.54564 1.58496 8.62679 1.72309 8.65535 1.87602L9.35602 5.58135C9.40578 5.84479 9.5338 6.0871 9.72337 6.27667C9.91294 6.46624 10.1553 6.59426 10.4187 6.64402L14.124 7.34469C14.277 7.37325 14.4151 7.4544 14.5145 7.57408C14.6139 7.69377 14.6683 7.84444 14.6683 8.00002C14.6683 8.1556 14.6139 8.30627 14.5145 8.42596C14.4151 8.54564 14.277 8.62679 14.124 8.65535L10.4187 9.35602C10.1553 9.40578 9.91294 9.5338 9.72337 9.72337C9.5338 9.91294 9.40578 10.1553 9.35602 10.4187L8.65535 14.124C8.62679 14.277 8.54564 14.4151 8.42596 14.5145C8.30627 14.6139 8.1556 14.6683 8.00002 14.6683C7.84444 14.6683 7.69377 14.6139 7.57408 14.5145C7.4544 14.4151 7.37325 14.277 7.34469 14.124L6.64402 10.4187C6.59426 10.1553 6.46624 9.91294 6.27667 9.72337C6.0871 9.5338 5.84479 9.40578 5.58135 9.35602L1.87602 8.65535C1.72309 8.62679 1.58496 8.54564 1.48557 8.42596C1.38617 8.30627 1.33176 8.1556 1.33176 8.00002C1.33176 7.84444 1.38617 7.69377 1.48557 7.57408C1.58496 7.4544 1.72309 7.37325 1.87602 7.34469L5.58135 6.64402C5.84479 6.59426 6.0871 6.46624 6.27667 6.27667C6.46624 6.0871 6.59426 5.84479 6.64402 5.58135L7.34469 1.87602Z" stroke="white" stroke-width="1.33333" stroke-linecap="round" stroke-linejoin="round"/>
<path d="M13.3333 1.33334V4.00001" stroke="white" stroke-width="1.33333" stroke-linecap="round" stroke-linejoin="round"/>
<path d="M14.6667 2.66666H12" stroke="white" stroke-width="1.33333" stroke-linecap="round" stroke-linejoin="round"/>
<path d="M2.66668 14.6667C3.40306 14.6667 4.00001 14.0697 4.00001 13.3333C4.00001 12.597 3.40306 12 2.66668 12C1.9303 12 1.33334 12.597 1.33334 13.3333C1.33334 14.0697 1.9303 14.6667 2.66668 14.6667Z" stroke="white" stroke-width="1.33333" stroke-linecap="round" stroke-linejoin="round"/>
</g>
<defs>
<clipPath id="clip0_9_69">
<rect width="16" height="16" fill="white"/>
</clipPath>
</defs>
</svg>
