<svg width="14" height="14" viewBox="0 0 14 14" fill="none" xmlns="http://www.w3.org/2000/svg">
  <g clip-path="url(#clip0_9_549)">
    <path d="M7 10.4998V2.9165" stroke="currentColor" stroke-width="1.16667" stroke-linecap="round" stroke-linejoin="round"/>
    <path d="M8.75 7.58333C8.2453 7.4358 7.80199 7.1287 7.4865 6.70804C7.17101 6.28738 7.00032 5.77582 7 5.25C6.99968 5.77582 6.82899 6.28738 6.5135 6.70804C6.19801 7.1287 5.7547 7.4358 5.25 7.58333" stroke="currentColor" stroke-width="1.16667" stroke-linecap="round" stroke-linejoin="round"/>
    <path d="M10.2655 3.79158C10.3997 3.55912 10.4787 3.29889 10.4962 3.03103C10.5138 2.76317 10.4695 2.49486 10.3668 2.24685C10.2641 1.99885 10.1057 1.7778 9.90387 1.6008C9.70206 1.42381 9.46223 1.29561 9.20294 1.22614C8.94365 1.15666 8.67185 1.14776 8.40858 1.20013C8.1453 1.2525 7.8976 1.36474 7.68464 1.52816C7.47168 1.69157 7.29917 1.90179 7.18045 2.14255C7.06173 2.38331 6.99999 2.64815 7 2.91658C7.00001 2.64815 6.93827 2.38331 6.81955 2.14255C6.70083 1.90179 6.52832 1.69157 6.31536 1.52816C6.1024 1.36474 5.8547 1.2525 5.59142 1.20013C5.32815 1.14776 5.05635 1.15666 4.79706 1.22614C4.53777 1.29561 4.29794 1.42381 4.09612 1.6008C3.89431 1.7778 3.73591 1.99885 3.63319 2.24685C3.53047 2.49486 3.48618 2.76317 3.50375 3.03103C3.52132 3.29889 3.60027 3.55912 3.7345 3.79158" stroke="currentColor" stroke-width="1.16667" stroke-linecap="round" stroke-linejoin="round"/>
    <path d="M10.4982 2.98975C10.8411 3.07791 11.1594 3.24294 11.4291 3.47234C11.6988 3.70175 11.9127 3.98951 12.0547 4.31382C12.1966 4.63814 12.263 4.99052 12.2486 5.34426C12.2342 5.69801 12.1395 6.04384 11.9717 6.35558" stroke="currentColor" stroke-width="1.16667" stroke-linecap="round" stroke-linejoin="round"/>
    <path d="M10.5 10.5C11.0136 10.5 11.5129 10.3305 11.9204 10.0178C12.3279 9.70511 12.6208 9.26671 12.7537 8.77058C12.8867 8.27446 12.8522 7.74833 12.6556 7.27379C12.4591 6.79926 12.1115 6.40283 11.6667 6.146" stroke="currentColor" stroke-width="1.16667" stroke-linecap="round" stroke-linejoin="round"/>
    <path d="M11.6474 10.1982C11.6883 10.5145 11.6639 10.8359 11.5757 11.1424C11.4875 11.4489 11.3375 11.7341 11.1348 11.9803C10.9321 12.2265 10.681 12.4286 10.3972 12.574C10.1133 12.7194 9.80268 12.8051 9.48441 12.8258C9.16614 12.8464 8.84702 12.8016 8.54675 12.6941C8.24648 12.5866 7.97144 12.4187 7.73862 12.2007C7.50579 11.9827 7.32013 11.7193 7.19308 11.4268C7.06604 11.1342 7.00032 10.8188 6.99998 10.4998C6.99964 10.8188 6.93392 11.1342 6.80687 11.4268C6.67983 11.7193 6.49416 11.9827 6.26134 12.2007C6.02851 12.4187 5.75347 12.5866 5.4532 12.6941C5.15294 12.8016 4.83381 12.8464 4.51555 12.8258C4.19728 12.8051 3.88663 12.7194 3.60277 12.574C3.31892 12.4286 3.06789 12.2265 2.86519 11.9803C2.66248 11.7341 2.51242 11.4489 2.42425 11.1424C2.33608 10.8359 2.31168 10.5145 2.35256 10.1982" stroke="currentColor" stroke-width="1.16667" stroke-linecap="round" stroke-linejoin="round"/>
    <path d="M3.49998 10.5C2.98635 10.5 2.48708 10.3305 2.0796 10.0178C1.67212 9.70511 1.3792 9.26671 1.24626 8.77058C1.11332 8.27446 1.1478 7.74833 1.34434 7.27379C1.54088 6.79926 1.88851 6.40283 2.33331 6.146" stroke="currentColor" stroke-width="1.16667" stroke-linecap="round" stroke-linejoin="round"/>
    <path d="M3.50173 2.98975C3.15885 3.07791 2.84052 3.24294 2.57086 3.47234C2.30121 3.70175 2.08729 3.98951 1.9453 4.31382C1.80332 4.63814 1.73701 4.99052 1.75137 5.34426C1.76574 5.69801 1.86042 6.04384 2.02823 6.35558" stroke="currentColor" stroke-width="1.16667" stroke-linecap="round" stroke-linejoin="round"/>
  </g>
  <defs>
    <clipPath id="clip0_9_549">
      <rect width="14" height="14" fill="white"/>
    </clipPath>
  </defs>
</svg>
