<svg width="32" height="32" viewBox="0 0 32 32" fill="none" xmlns="http://www.w3.org/2000/svg">
<path d="M20.636 17.1875L22.656 28.5555C22.6786 28.6894 22.6598 28.8269 22.6021 28.9498C22.5445 29.0727 22.4506 29.1751 22.3332 29.2432C22.2158 29.3114 22.0804 29.342 21.945 29.3311C21.8097 29.3202 21.681 29.2682 21.576 29.1822L16.8026 25.5995C16.5722 25.4273 16.2923 25.3343 16.0046 25.3343C15.717 25.3343 15.4371 25.4273 15.2066 25.5995L10.4253 29.1808C10.3204 29.2667 10.1918 29.3186 10.0566 29.3296C9.92148 29.3405 9.7862 29.3099 9.66886 29.242C9.55151 29.174 9.45767 29.0719 9.39987 28.9493C9.34206 28.8266 9.32302 28.6893 9.34531 28.5555L11.364 17.1875" stroke="#5EA500" stroke-width="2.66667" stroke-linecap="round" stroke-linejoin="round"/>
<path d="M16 18.666C20.4183 18.666 24 15.0843 24 10.666C24 6.24774 20.4183 2.66602 16 2.66602C11.5817 2.66602 8 6.24774 8 10.666C8 15.0843 11.5817 18.666 16 18.666Z" stroke="#5EA500" stroke-width="2.66667" stroke-linecap="round" stroke-linejoin="round"/>
</svg>
