<svg width="28" height="28" viewBox="0 0 28 28" fill="none" xmlns="http://www.w3.org/2000/svg">
<path d="M25.3516 21.0001L16.0183 4.66677C15.8148 4.30767 15.5197 4.00898 15.1631 3.80118C14.8064 3.59337 14.4011 3.48389 13.9883 3.48389C13.5756 3.48389 13.1702 3.59337 12.8136 3.80118C12.4569 4.00898 12.1618 4.30767 11.9583 4.66677L2.62498 21.0001C2.41927 21.3564 2.31141 21.7607 2.31232 22.172C2.31323 22.5834 2.42289 22.9872 2.63017 23.3426C2.83745 23.6979 3.13498 23.9921 3.49262 24.1954C3.85026 24.3987 4.25529 24.5038 4.66665 24.5001H23.3333C23.7427 24.4997 24.1448 24.3916 24.4991 24.1866C24.8535 23.9816 25.1477 23.687 25.3522 23.3324C25.5568 22.9778 25.6644 22.5756 25.6643 22.1662C25.6641 21.7568 25.5563 21.3546 25.3516 21.0001Z" stroke="white" stroke-width="2.33333" stroke-linecap="round" stroke-linejoin="round"/>
<path d="M14 10.5V15.1667" stroke="white" stroke-width="2.33333" stroke-linecap="round" stroke-linejoin="round"/>
<path d="M14 19.8335H14.0117" stroke="white" stroke-width="2.33333" stroke-linecap="round" stroke-linejoin="round"/>
</svg>
