<svg width="32" height="32" viewBox="0 0 32 32" fill="none" xmlns="http://www.w3.org/2000/svg">
<path d="M16 29.3327C23.3638 29.3327 29.3334 23.3631 29.3334 15.9993C29.3334 8.63555 23.3638 2.66602 16 2.66602C8.63622 2.66602 2.66669 8.63555 2.66669 15.9993C2.66669 23.3631 8.63622 29.3327 16 29.3327Z" stroke="#155DFC" stroke-width="2.66667" stroke-linecap="round" stroke-linejoin="round"/>
<path d="M16 24C20.4183 24 24 20.4183 24 16C24 11.5817 20.4183 8 16 8C11.5817 8 8 11.5817 8 16C8 20.4183 11.5817 24 16 24Z" stroke="#155DFC" stroke-width="2.66667" stroke-linecap="round" stroke-linejoin="round"/>
<path d="M16 18.6673C17.4727 18.6673 18.6666 17.4734 18.6666 16.0007C18.6666 14.5279 17.4727 13.334 16 13.334C14.5272 13.334 13.3333 14.5279 13.3333 16.0007C13.3333 17.4734 14.5272 18.6673 16 18.6673Z" stroke="#155DFC" stroke-width="2.66667" stroke-linecap="round" stroke-linejoin="round"/>
</svg>
