<svg width="12" height="12" viewBox="0 0 12 12" fill="none" xmlns="http://www.w3.org/2000/svg">
<g clip-path="url(#clip0_9_457)">
<path d="M1 4.74978C1.00001 4.19338 1.1688 3.65007 1.48407 3.19161C1.79934 2.73315 2.24626 2.38111 2.7658 2.18198C3.28535 1.98285 3.85308 1.946 4.39401 2.0763C4.93493 2.2066 5.42361 2.49792 5.7955 2.91178C5.82169 2.93978 5.85336 2.96211 5.88854 2.97738C5.92372 2.99264 5.96165 3.00052 6 3.00052C6.03835 3.00052 6.07628 2.99264 6.11146 2.97738C6.14664 2.96211 6.17831 2.93978 6.2045 2.91178C6.57522 2.49523 7.06401 2.20146 7.60582 2.06958C8.14762 1.93769 8.71675 1.97395 9.23744 2.17352C9.75813 2.37309 10.2057 2.7265 10.5206 3.18673C10.8354 3.64695 11.0027 4.19216 11 4.74978C11 5.89478 10.25 6.74978 9.5 7.49978L6.754 10.1563C6.66083 10.2633 6.54596 10.3492 6.41702 10.4084C6.28808 10.4676 6.14802 10.4987 6.00614 10.4996C5.86427 10.5005 5.72382 10.4712 5.59414 10.4136C5.46446 10.3561 5.34851 10.2716 5.254 10.1658L2.5 7.49978C1.75 6.74978 1 5.89978 1 4.74978Z" stroke="#6A7282" stroke-linecap="round" stroke-linejoin="round"/>
</g>
<defs>
<clipPath id="clip0_9_457">
<rect width="12" height="12" fill="white"/>
</clipPath>
</defs>
</svg>
