<svg width="20" height="20" viewBox="0 0 20 20" fill="none" xmlns="http://www.w3.org/2000/svg">
<path d="M12.5 1.66675H5.00001C4.55798 1.66675 4.13406 1.84234 3.8215 2.1549C3.50894 2.46746 3.33334 2.89139 3.33334 3.33341V16.6667C3.33334 17.1088 3.50894 17.5327 3.8215 17.8453C4.13406 18.1578 4.55798 18.3334 5.00001 18.3334H15C15.442 18.3334 15.866 18.1578 16.1785 17.8453C16.4911 17.5327 16.6667 17.1088 16.6667 16.6667V5.83341L12.5 1.66675Z" stroke="#009689" stroke-width="1.66667" stroke-linecap="round" stroke-linejoin="round"/>
<path d="M11.6667 1.66675V5.00008C11.6667 5.44211 11.8423 5.86603 12.1548 6.17859C12.4674 6.49115 12.8913 6.66675 13.3333 6.66675H16.6667" stroke="#009689" stroke-width="1.66667" stroke-linecap="round" stroke-linejoin="round"/>
<path d="M8.33332 7.5H6.66666" stroke="#009689" stroke-width="1.66667" stroke-linecap="round" stroke-linejoin="round"/>
<path d="M13.3333 10.8333H6.66666" stroke="#009689" stroke-width="1.66667" stroke-linecap="round" stroke-linejoin="round"/>
<path d="M13.3333 14.1667H6.66666" stroke="#009689" stroke-width="1.66667" stroke-linecap="round" stroke-linejoin="round"/>
</svg>
