<svg width="24" height="24" viewBox="0 0 24 24" fill="none" xmlns="http://www.w3.org/2000/svg">
<path d="M2.992 16.3417C3.13904 16.7126 3.17177 17.119 3.086 17.5087L2.021 20.7987C1.98668 20.9655 1.99555 21.1384 2.04677 21.3008C2.09799 21.4633 2.18986 21.61 2.31366 21.727C2.43747 21.844 2.58911 21.9274 2.7542 21.9693C2.91929 22.0113 3.09236 22.0104 3.257 21.9667L6.67 20.9687C7.03771 20.8958 7.41852 20.9276 7.769 21.0607C9.90438 22.0579 12.3234 22.2689 14.5991 21.6564C16.8749 21.0439 18.8613 19.6473 20.2077 17.7131C21.5541 15.7788 22.1741 13.4311 21.9583 11.0842C21.7425 8.73738 20.7047 6.54216 19.0281 4.88589C17.3514 3.22962 15.1437 2.21873 12.7944 2.03159C10.4451 1.84445 8.10513 2.49308 6.18744 3.86303C4.26975 5.23299 2.89753 7.23624 2.31289 9.51933C1.72825 11.8024 1.96877 14.2186 2.992 16.3417Z" stroke="white" stroke-width="2" stroke-linecap="round" stroke-linejoin="round"/>
</svg>
