<svg width="36" height="36" viewBox="0 0 36 36" fill="none" xmlns="http://www.w3.org/2000/svg">
<path d="M3 14.2501C3.00003 12.5809 3.50639 10.9509 4.4522 9.57556C5.39801 8.20018 6.73878 7.14405 8.29741 6.54666C9.85605 5.94927 11.5592 5.83873 13.182 6.22963C14.8048 6.62053 16.2708 7.49448 17.3865 8.73606C17.4651 8.82008 17.5601 8.88707 17.6656 8.93286C17.7711 8.97866 17.885 9.00229 18 9.00229C18.115 9.00229 18.2289 8.97866 18.3344 8.93286C18.4399 8.88707 18.5349 8.82008 18.6135 8.73606C19.7257 7.48641 21.192 6.60511 22.8175 6.20946C24.4429 5.81381 26.1502 5.92258 27.7123 6.52129C29.2744 7.11999 30.6171 8.18024 31.5617 9.56091C32.5063 10.9416 33.008 12.5772 33 14.2501C33 17.6851 30.75 20.2501 28.5 22.5001L20.262 30.4696C19.9825 30.7906 19.6379 31.0484 19.2511 31.226C18.8642 31.4036 18.4441 31.4968 18.0184 31.4995C17.5928 31.5022 17.1715 31.4143 16.7824 31.2416C16.3934 31.069 16.0455 30.8155 15.762 30.4981L7.5 22.5001C5.25 20.2501 3 17.7001 3 14.2501Z" stroke="white" stroke-width="3" stroke-linecap="round" stroke-linejoin="round"/>
</svg>
