<?xml version="1.0" encoding="UTF-8"?>
<svg id="Capa_1" xmlns="http://www.w3.org/2000/svg" viewBox="0 0 530.64 339.9">
  <path d="M0,229.96c.32-.03.61-.08.89-.08,5.9,0,11.81,0,17.71-.03.95,0,1.37.29,1.74,1.22,1.64,4.06,3.41,8.06,5.14,12.08.99,2.31,1.99,4.61,2.98,6.92.95,2.22,1.84,4.47,2.85,6.67.74,1.62,1.65,3.16,2.46,4.75.19.37.28.8.41,1.21.56,1.67,1.22,3.23,2.17,4.78,1.29,2.11,1.92,4.63,2.85,6.96.29.73.66,1.44,1.11,2.43,1.3-2.66,2.51-4.99,3.6-7.38.67-1.47,1.14-3.04,1.76-4.53.27-.66.71-1.25,1.04-1.89.39-.75.77-1.5,1.11-2.27.83-1.86,1.62-3.74,2.44-5.6.17-.39.45-.73.62-1.12,1.27-2.99,2.43-6.04,3.83-8.97,1.02-2.15,1.36-4.63,3.1-6.44.24-.25.27-.7.42-1.06.95-2.33,1.88-4.66,2.9-6.96.15-.33.72-.67,1.09-.68,6.07-.03,12.15-.01,18.22,0,.03,0,.06.06.15.16v70.8h-15.28c-.14-13.79-.27-27.55-.41-41.31-.18-.03-.36-.05-.53-.08-.44.95-.88,1.89-1.32,2.84-1.33,2.9-2.76,5.76-3.95,8.72-.98,2.46-1.89,4.91-3.44,7.09-.44.61-.37,1.55-.69,2.28-1.28,3-2.6,5.99-3.95,8.97-.63,1.39-1.4,2.72-2.03,4.11-.63,1.39-1.12,2.84-1.73,4.23-.32.73-.75,1.43-1.2,2.1-.53.78-1.23,1.17-2.26,1.14-2.61-.06-5.22.04-7.83,0-.43,0-1.08-.29-1.24-.64-1.38-2.83-2.75-5.67-3.94-8.57-.68-1.65-1.27-3.28-2.26-4.81-.93-1.43-1.23-3.25-1.95-4.83-1.58-3.47-3.28-6.89-4.86-10.36-1.82-3.99-3.56-8.02-5.34-12.02-.05-.11-.14-.2-.45-.64v41.79H0v-70.97Z"/>
  <path d="M453.7,263.27c.26-1.76.43-5.18,1.33-8.39.82-2.94,2.3-5.74,3.75-8.46.93-1.74,2.33-3.24,3.56-4.81.91-1.17,1.7-2.58,2.89-3.36,2.25-1.48,4.03-3.66,6.69-4.56.72-.25,1.23-1.08,1.94-1.38,1.78-.75,3.63-1.35,5.46-1.99,3.86-1.35,7.86-2.11,11.93-2.12,4.28,0,8.5.71,12.57,2.11.96.33,1.94.69,2.94.85,1.53.25,2.54,1.35,3.79,2.06,1.63.93,3.31,1.82,4.79,2.96,1.53,1.18,2.89,2.6,4.26,3.98.96.96,1.93,1.96,2.69,3.07,1.44,2.09,2.84,4.22,4.05,6.46.63,1.17.8,2.59,1.18,3.9,1.41,4.87,2.52,9.8,1.77,14.89-.46,3.15-1.28,6.24-2.01,9.34-.3,1.27-.72,2.52-1.23,3.73-.24.57-.87.96-1.22,1.5-.33.5-.47,1.11-.78,1.63-.63,1.05-1.25,2.11-1.99,3.08-1,1.32-.91,2,.52,2.88.64.39,1.27.68,1.26,1.71,0,.45.92.88,1.36,1.36.63.68,1.2,1.42,1.83,2.11.44.49.94.92,1.4,1.4.74.77,1.47,1.56,2.21,2.33-.9.4-1.77.87-2.69,1.19-2.93,1.03-5.88,2.01-8.84,2.99-.52.17-1.09.22-1.62.39-1.21.4-2.04-.11-2.77-1.03-1.23-1.53-2.54-3-3.72-4.57-.49-.65-.89-.64-1.49-.32-6.75,3.56-14.01,4.6-21.5,4.04-4.87-.36-9.56-1.42-13.97-3.83-2.94-1.61-5.96-3.14-8.34-5.43-3.77-3.62-6.93-7.68-9.08-12.65-2.17-5.04-2.67-10.17-2.93-17.07ZM499.5,285.62c-1.29-1.09-2.46-1.99-3.52-3.01-.53-.51-.81-1.28-1.29-1.86-.96-1.19-1.96-2.34-2.98-3.48-.31-.35-.68-.63-1.04-.93-.59-.5-1.2-.98-1.94-1.58.59-.21.9-.33,1.23-.43,2.82-.8,5.65-1.56,8.46-2.4,1.41-.42,2.79-.98,4.17-1.51,1.03-.39,1.68-.12,2.37.81,1.19,1.6,2.56,3.08,3.95,4.52.66.69,1.28.71,1.87-.36,1.34-2.43,1.86-5.05,2.05-7.74.28-4.13.11-8.21-2.1-11.92-1.06-1.79-1.78-3.74-3.31-5.31-.91-.94-1.63-1.98-2.89-2.49-.27-.11-.56-.29-.72-.52-1.59-2.31-4.27-2.69-6.6-3.19-3.14-.68-6.39-1.16-9.72-.43-2.52.55-5.04.94-7.12,2.56-1.78,1.38-3.78,2.62-5.14,4.34-2.3,2.91-4.02,6.19-4.54,10.02-.68,5.02-.48,9.91,1.39,14.65.35.88,1.31,1.53,1.6,2.41.81,2.47,3.22,3.57,4.53,5.58.15.22.49.33.76.46.6.29,1.24.52,1.81.85.53.31.94.87,1.5,1.09,5.27,2.09,10.64,2.14,16.04.59.4-.11.74-.45,1.18-.73Z"/>
  <path d="M385.2,229.96h15.74v70.95c-.27.03-.55.09-.83.09-5.09,0-10.18-.04-15.27,0-1.02,0-1.68-.3-2.22-1.15-1.93-3.07-3.9-6.12-5.86-9.17-3.53-5.54-7.06-11.08-10.6-16.61-1.88-2.95-3.82-5.86-5.68-8.82-1.81-2.88-3.56-5.79-5.6-8.69v44.47c-.88,0-1.51,0-2.13,0-4.24,0-8.47-.03-12.71.03-1.08.02-1.39-.31-1.39-1.37.02-20.36.02-40.73.01-61.09,0-2.52.03-5.05-.01-7.57-.01-.84.3-1.13,1.13-1.13,5.13.02,10.27,0,15.4.02,1.14,0,2.03.27,2.69,1.46,1.63,2.95,3.43,5.81,5.22,8.67,1.64,2.62,3.41,5.15,5.03,7.78,1.95,3.14,3.8,6.33,5.7,9.5.07.11.12.23.21.32,2.44,2.29,3.48,5.51,5.47,8.1.72.93.98,2.27,1.79,3.07,1.41,1.4,2.11,3.16,3.01,4.83.15.28.41.5.88,1.06v-44.74Z"/>
  <path d="M126.24,302.4c-8.06.05-15.15-1.89-21.52-6.14-3.24-2.16-6.13-4.71-8.62-7.78-2.95-3.64-5.09-7.63-6.33-12.12-1.29-4.67-2.31-9.41-1.74-14.28.26-2.18.95-4.32,1.47-6.47.36-1.49.51-3.12,1.23-4.41,1.67-2.98,2.73-6.35,5.37-8.75.68-.61,1.13-1.48,1.68-2.23.2-.27.34-.64.6-.82,2.72-1.86,4.78-4.63,8.01-5.81.66-.24,1.17-.9,1.75-1.35.2-.15.4-.34.63-.4,4.2-1.11,8.36-2.47,12.62-3.22,5.6-.99,11.15-.11,16.55,1.61.65.21,1.3.43,1.96.6,2,.51,3.84,1.33,5.5,2.6.84.64,1.85,1.04,2.77,1.58.44.26.85.56,1.24.88.78.65,1.54,1.34,2.32,2,.36.3.81.53,1.08.89,1.6,2.19,3.6,4.02,5.11,6.32,2.48,3.78,4.24,7.84,5.14,12.17,1.3,6.26,1.27,12.65-.7,18.78-2.68,8.34-7.39,15.33-14.89,20.2-6.59,4.27-13.83,6.18-21.22,6.14ZM147.29,265.27c.08-8.03-3.19-14.33-9.8-18.71-5.31-3.52-11.28-3.83-17.37-2.42-1.4.33-2.93.62-4.1,1.39-4.04,2.69-7.49,5.84-9.58,10.51-2.19,4.9-2.5,9.79-1.43,14.84.4,1.88,1.48,3.61,2.23,5.42.68,1.62,1.33,3.24,2.95,4.22.33.2.47.71.76,1.01.61.62,1.21,1.25,1.9,1.78.53.41,1.31.55,1.75,1.02,1.19,1.24,2.69,1.74,4.26,2.19,4.95,1.41,9.9,1.16,14.77-.25,1.37-.4,2.6-1.39,3.8-2.24,1.48-1.04,3.13-2,4.25-3.37,2.22-2.74,4.33-5.64,4.84-9.3.29-2.02.5-4.06.74-6.09Z"/>
  <path d="M291.87,302.38c-3.8-.21-9.47-1.01-14.82-3.65-4.49-2.22-8.38-5.13-11.72-8.79-1.33-1.46-2.69-2.96-3.67-4.65-2.81-4.82-4.65-9.99-5.2-15.61-.63-6.37-.05-12.62,2.36-18.51,1.27-3.11,3.36-5.91,5.28-8.71,2.22-3.23,5.2-5.75,8.5-7.85,8.58-5.49,17.97-7.41,27.97-5.72,3.63.61,7.16,1.91,10.67,3.08,1.08.36,1.88,1.47,2.93,2,3.28,1.63,5.89,4.07,8.28,6.74,2.66,2.96,4.66,6.3,6.37,9.97,1.41,3.03,2.15,6.05,2.64,9.23.69,4.57.27,9.11-.43,13.65-.6,3.92-2.38,7.39-4.26,10.74-1.43,2.55-3.3,4.88-5.43,7.04-1.82,1.84-3.79,3.43-5.86,4.86-6.47,4.47-13.78,6.25-23.6,6.18ZM272.63,266.33c-.37,3.18.83,5.97,2.06,8.75,3.01,6.78,8.09,10.96,15.51,12.04,5.99.87,11.6-.02,16.6-3.78,3.03-2.27,5.36-5.18,6.71-8.56,2.48-6.2,2.43-12.68-.06-18.88-1.18-2.93-2.87-5.78-5.79-7.54-.54-.32-.96-.85-1.48-1.22-.86-.62-1.67-1.47-2.64-1.74-3.05-.87-6.16-1.54-9.25-2.24-.43-.1-.93.04-1.39.12-.97.17-1.92.46-2.89.55-6.16.56-10.55,4.12-13.79,8.91-2.7,3.99-3.97,8.66-3.59,13.59Z"/>
  <path d="M205.67,301.05c-5.3,0-10.39-.02-15.47.02-1.09,0-.99-.65-.99-1.35,0-7.61,0-15.23,0-22.84,0-10.65,0-21.3,0-32.19-.57,0-1.11,0-1.64,0-5.9.02-11.81.03-17.71.04-1.98,0-2.13-.14-2.11-2.1.04-3.92.12-7.83.15-11.75,0-.72.26-1.01.97-1,1.5.02,2.99.02,4.49.02,17.33,0,34.65-.01,51.98-.02.46,0,.92,0,1.47,0v14.75h-21.13v56.42Z"/>
  <path d="M266.99,78.52c-5.06-.88-9.45.45-13.65,3.26-.43-1.34-.88-2.57-1.23-3.83-.61-2.18-1.12-4.38-1.76-6.54-.14-.47-.55-1.08-.97-1.21-4.12-1.34-7.93-3.61-12.28-4.24-2.63-.39-4.96.31-7.24,1.84-2.93,1.97-6.14,3.51-9.25,5.22-4.9,2.7-9.8,5.38-14.7,8.08-4.11,2.27-8.22,4.53-12.3,6.86-.49.28-.94.99-1.04,1.56-.3,1.72-.34,3.49-.62,5.21-.74,4.52-3.41,7.69-7.19,10.08-2.9,1.84-6.01,2.84-9.47,2.59-5.02-.37-9.08-2.45-12.28-6.45-3.97-4.96-4.25-10.4-2.46-16.1,1.05-3.35,3.3-6.08,6.3-7.86,3.48-2.06,7.26-3.61,11.45-2.67,1.94.43,3.76,1.37,5.68,1.92.69.2,1.64.21,2.26-.12,5.88-3.11,11.73-6.29,17.57-9.49,5.12-2.81,10.22-5.66,15.31-8.52,3.68-2.07,7.31-4.22,11-6.26,1.45-.8,3-1.43,4.54-2.05.64-.26,1.5-.58,2.06-.35,3.09,1.23,6.27,2.34,9.11,4.02,2.94,1.74,5.82,3.6,8.73,5.39,1.4.87,2.76,1.81,4.15,2.69.46.3.94.66,1.46.77,1.19.26,1.72,1.07,2.21,2.08,1.71,3.49,2.27,7.31,3.27,11.01.27.99.8,1.92,1.32,3.12ZM176.03,80.04c-6.44-.53-10.96,5.48-10.85,10.68.13,6.48,4.75,11.05,11.04,11.01,5.95-.04,10.9-5.2,10.84-11.33-.05-5.58-5.18-10.4-11.03-10.36Z"/>
  <path d="M274.1,79.75c.59-.66,1.16-1.34,1.77-1.98,1.95-2.03,3.95-4.02,5.85-6.09.37-.4.59-1.2.49-1.74-.65-3.3-1.42-6.57-2.15-9.85-.1-.46-.19-.92-.29-1.37-.38-1.65-1.02-3.05-2.45-4.19-3.46-2.75-7.55-4.4-11.29-6.63-7.28-4.35-14.64-8.58-21.97-12.86-1.92-1.12-3.85-2.2-5.75-3.36-.8-.49-1.41-.59-2.28,0-4.43,3-9.3,3.58-14.32,1.98-2.91-.93-5.36-2.73-7.37-5.12-2.84-3.38-4.09-7.28-4.09-11.64,0-.59.05-1.21.22-1.77,1.26-4.28,3.01-8.37,6.93-10.84,2-1.26,4.41-2.1,6.74-2.59,6.42-1.35,14.13,1.88,17.39,8.43,1.38,2.76,2.09,5.55,2.22,8.57.01.28.2.75.4.81,2.97.78,5.24,2.8,7.8,4.31,2.96,1.75,6.22,3.09,8.89,5.2,1.98,1.57,4.38,2.11,6.33,3.6,1.42,1.08,3.21,1.65,4.77,2.56,1.57.91,3.02,2.02,4.61,2.9,2.95,1.64,5.97,3.16,8.94,4.77,1.41.76,2.79,1.61,4.17,2.42,2.79,1.63,3.87,4.36,4.48,7.3.35,1.66.54,3.38.54,5.07,0,6.03-.04,12.07-.25,18.09-.04,1.27-.59,2.76-1.4,3.72-2.81,3.33-5.84,6.47-8.79,9.68-.11.12-.27.19-.51.34-1.41-5.02-5.25-7.56-9.62-9.73ZM227.01,28.59c5.27.36,10.8-4.61,10.81-11.04.01-5.37-5.63-10.61-10.68-10.69-4.97-.08-11.48,5.18-11.25,11.33.2,5.25,4.92,10.96,11.12,10.4Z"/>
  <path d="M282.44,109.85c0-.15-.02-.22,0-.23,3.5-2.41,3.72-6.08,3.8-9.81.02-1.06,0-2.12,0-3.07,3.92.68,7.8,1.39,11.7,2,.59.09,1.39-.1,1.85-.47,1.54-1.21,2.98-2.54,4.42-3.87,1.63-1.49,3.23-3.02,4.82-4.55.8-.77,1.19-1.72,1.17-2.87-.02-1.24.12-2.48.13-3.72.03-13.78.04-27.55.07-41.33,0-.68-.2-.96-.81-1.34-2.7-1.69-4.85-4.01-6.05-6.96-2.04-5.01-2.15-10.14.39-15.01,2.85-5.46,9.21-9.08,15.42-8.67,3.93.26,7.32,1.69,10.12,4.15,2.9,2.56,5.04,5.86,5.26,9.93.12,2.28.17,4.65-.27,6.87-.65,3.25-2.58,5.89-5.06,8.11-1.32,1.17-2.67,2.22-4.44,2.69-.35.09-.69.99-.69,1.52-.11,10.35-.2,20.71-.25,31.06-.03,6.5-.11,13.01.03,19.5.06,2.97-1.33,5.15-3.47,6.62-4.11,2.81-8.47,5.27-12.78,7.79-2.5,1.47-5.1,2.77-7.64,4.15-1.09.59-2.19.73-3.43.46-4.66-1.01-9.35-1.92-14.02-2.87-.08-.02-.16-.06-.27-.1ZM318.53,15.89c-6.73-.43-11.13,6.05-11.17,10.37-.06,5.9,5.81,11.56,11.1,11.33,5.19-.23,10.98-4.48,10.71-11.49-.22-5.71-4.49-10.44-10.64-10.21Z"/>
  <path d="M206.64,156.22c0-12.94,0-26.21,0-39.47,0-3.85-.05-7.7.07-11.55.04-1.19.49-2.39.87-3.54.32-.96.74-1.92,1.29-2.76.42-.65,1.1-1.14,1.71-1.65,1.05-.88,2.13-1.73,3.44-2.79,1.28.17,2.44-1.04,3.77-1.76,3.48-1.9,6.92-3.89,10.37-5.84.89-.5,1.86-.91,2.67-1.51,1.96-1.45,3.89-.96,5.99-.31,2.47.77,5.05,1.24,7.59,1.79,1.2.26,2.43.4,3.72.61-1.04,2.2-2.01,4.37-3.09,6.49-1.15,2.26-.22,4.6-.24,7.09-2.55-.59-4.95-1.1-7.33-1.7-5.25-1.34-4.27-1.73-8.44,2.05-2.37,2.15-4.69,4.36-6.9,6.68-1.17,1.22-1.65,2.82-1.66,4.58-.11,13.99-.24,27.98-.41,41.97-.02,1.3.42,1.93,1.54,2.68,5.7,3.81,8.93,8.85,7.99,16.57-1.09,8.94-9.85,14.7-17.12,14.13-6.82-.54-13.22-4.73-14.97-12.07-.92-3.84-.89-7.49.66-11.02,1.64-3.74,4.53-6.44,8.47-8.68ZM224.09,171.35c.45-6.27-5.36-10.86-11-10.73-5.65.13-10.76,5.16-10.79,10.9-.03,5.36,5.11,10.62,10.34,10.78,6.21.19,11.81-4.27,11.45-10.94Z"/>
  <path d="M264.59,119.1c4.86.47,9.44.17,13.09-4.09.5,1.95.95,3.6,1.34,5.26.53,2.28.95,4.59,2.38,6.55.68.93,1.44,1.59,2.58,1.94,2.52.77,5.01,1.62,7.48,2.54,1.89.71,3.82.85,5.79.74.44-.03.9-.23,1.3-.45,4.47-2.49,8.92-4.99,13.38-7.51,3.67-2.07,7.34-4.12,10.98-6.24,3.23-1.89,6.4-3.89,9.63-5.77,1.36-.79,2.79-1.48,4.24-2.1,1.3-.55,1.74-1.58,1.81-2.83.13-2.06.62-3.96,2.09-5.5.06-.06.12-.13.14-.21.89-2.94,3.45-4.4,5.66-6.04,1.23-.91,2.96-1.21,4.5-1.65,2.86-.83,5.85-.79,8.62,0,5.65,1.62,9.24,5.35,11.18,11.1,1.28,3.78.66,7.12-.41,10.58-.83,2.71-2.49,4.85-4.67,6.74-5.51,4.77-11.65,4.47-17.96,2.34-1.57-.53-2.86-1.91-4.38-2.97-2.28,2.52-5.75,3.6-8.8,5.35-6.14,3.54-12.35,6.95-18.49,10.48-4.7,2.7-9.4,5.4-13.97,8.3-5.04,3.18-9.9,2.52-14.72-.28-5.94-3.45-11.82-6.99-17.72-10.51-.34-.21-.75-.53-.85-.89-1.47-4.89-2.89-9.79-4.32-14.68,0-.03.03-.08.09-.2ZM365.94,110c.58-5.91-4.56-11.19-10.29-11.3-5.85-.12-10.85,3.32-11.35,10.23-.21,2.82.4,5.63,2.37,7.76,1.97,2.12,4.59,3.73,7.43,3.96,5.54.44,11.84-4.01,11.84-10.64Z"/>
  <path d="M246.97,108.58c1.45,1.88,2.68,4.01,4.41,5.56,1.69,1.52,3.9,2.45,5.82,3.61-2.62,2.88-5.41,5.91-8.14,9-.36.41-.59,1.18-.48,1.71.74,3.62,1.69,7.21,2.35,10.85.54,2.98,2.84,4.37,4.96,5.86,2.29,1.61,4.73,3.07,7.27,4.26,2.76,1.3,5.04,3.34,7.92,4.48,2.54,1,5.01,2.44,7.12,4.17,1.6,1.31,3.62,1.67,5.1,2.89,2.59,2.13,5.67,3.22,8.55,4.74.87.46,1.67.52,2.64.1,4.03-1.72,8.23-1.9,12.43-.81,5.14,1.33,10.51,6.72,11.19,12.76.33,2.94.39,5.87-.61,8.62-2.49,6.86-8.93,11.37-16.68,10.84-4.33-.3-7.99-1.97-10.91-5.01-2.39-2.48-4.12-5.45-4.17-9.1,0-.68-.24-1.38-.15-2.04.32-2.35-1.04-3.61-2.83-4.65-2.84-1.65-5.67-3.3-8.49-4.97-2.77-1.64-5.53-3.32-8.3-4.97-1.03-.61-2.06-1.2-3.11-1.77-3.81-2.08-7.65-4.11-11.45-6.22-3.16-1.76-6.29-3.57-9.4-5.41-3.5-2.07-5.5-5.17-5.52-9.23-.04-7.65.11-15.31.28-22.96.02-.89.5-1.94,1.1-2.6,3.03-3.36,6.18-6.61,9.11-9.71ZM301.95,191.88c3.1-.09,5.68-1.45,7.7-3.33,1.44-1.34,2.11-3.55,3.01-5.43,1.71-3.55-2.21-10.81-6.09-12.11-5.08-1.7-13.03-1.03-15.03,6.73-.11.41-.24.83-.44,1.2-.63,1.2-.5,2.35.01,3.56.7,1.64.97,3.61,2.05,4.92,2.23,2.72,5.31,4.23,8.78,4.47Z"/>
  <path d="M446.43,229.96v70.92h-16.11v-70.92h16.11Z"/>
  <path d="M248.69,301.1c-4.91,0-9.74-.02-14.57.02-1.07,0-1.26-.45-1.25-1.4.09-22.2.15-44.4.22-66.6,0-1.02,0-2.03,0-3.14h15.6v71.12Z"/>
  <path d="M336.8,39.97v13.59c.11,0,.22,0,.33,0v-14.93c1.91-.08,3.52.06,4.87,1.3.49.44,1.15.73,1.78.97,2.88,1.11,4.63,3.17,5.9,6,1.33,2.96,1.6,5.95,1.58,9.09-.05,7.31-.08,14.62-.02,21.94.04,4.22-1.71,7.51-4.98,9.98-1.43,1.08-3.11,1.92-4.78,2.58-1.9.74-3.65-.13-5.05-1.38-.46-.41-.59-1.39-.59-2.11.04-6.2.13-12.4.23-18.6.15-8.94.31-17.87.47-26.81,0-.54.06-1.07.1-1.61.05,0,.11,0,.16,0Z"/>
  <path d="M194.66,134.84c-.17,5.87-.37,13.26-.59,20.66-.03.98-.09,1.98-.34,2.91-.09.34-.89.83-1.16.73-2.45-.97-5.16-1.65-7.19-3.21-2.76-2.12-5.07-4.92-5.16-8.76-.14-6.2-.21-12.39-.25-18.59-.02-3.16,0-6.34.21-9.49.12-1.8.64-3.58,1-5.36.06-.28.18-.59.36-.81,2.31-2.84,4.76-5.48,8.67-6.05,1.4-.21,2.6.15,3.77.85.97.59,1.2,1.43,1.18,2.5-.18,7.7-.32,15.4-.5,24.62Z"/>
  <path d="M296.43,26.42c-.04,3.75-.91,5.22-3.54,5.95-.62.17-1.4.19-1.98-.05-1.38-.56-2.72-1.24-4-2-2.22-1.31-4.36-2.76-6.58-4.08-3.62-2.16-7.28-4.25-10.9-6.42-4.49-2.69-8.95-5.44-13.44-8.13-1.54-.92-3.15-1.72-4.68-2.63-2.87-1.7-3.09-2.78-.43-4.65C253.74,2.41,256.47,0,260.33,0c2.73,0,5.14.81,7.49,2.15,3.32,1.89,6.78,3.53,10.13,5.35,1.52.82,2.91,1.87,4.39,2.77,3.28,2,6.71,3.79,9.83,6.02,2.62,1.88,3.98,4.72,4.11,8.04.03.77.11,1.53.16,2.09Z"/>
  <path d="M234.11,170.88c-.12-2.12.55-4.07,2.65-5.37,1.25-.77,2.48-.86,3.74-.08,2.24,1.4,4.48,2.83,6.72,4.23,1.12.7,2.24,1.39,3.37,2.08,3.47,2.13,6.92,4.3,10.42,6.38,2.67,1.59,5.42,3.04,8.1,4.61,1.21.71,2.32,1.58,3.52,2.32,2.48,1.53,4.97,3.06,7.5,4.5,2.58,1.47,2.64,1.49.13,3.26-1.9,1.35-3.85,2.68-5.93,3.72-2.94,1.47-6.1,1.47-9.07.13-3.53-1.59-7.01-3.33-10.39-5.21-4.2-2.33-8.33-4.8-12.4-7.37-1.96-1.24-3.95-2.61-5.47-4.33-2.2-2.5-2.87-5.28-2.89-8.89Z"/>
  <path d="M355.53,138.08c-.51,5.67-3.07,9.14-6.98,11.67-3.27,2.11-6.62,4.12-10,6.05-2.79,1.59-5.7,2.98-8.53,4.52-.85.46-1.56,1.15-2.38,1.66-2.96,1.84-6.16,2.73-9.65,2.06-2.58-.5-5-1.48-7.03-3.2-1.55-1.32-2.06-4.42-.94-6.1.42-.62,1.21-1.04,1.91-1.42,1.73-.95,3.5-1.83,5.26-2.73.57-.29,1.15-.55,1.72-.84,2.82-1.49,5.66-2.94,8.44-4.49,3.07-1.72,6.07-3.55,9.12-5.3.51-.29,1.14-.38,1.65-.68,1.36-.79,2.68-1.64,4.03-2.46.36-.22.72-.45,1.1-.65,2.86-1.48,5.72-2.96,8.59-4.43.45-.23.96-.35,1.43-.55.72-.31,1.17-.1,1.29.68.37,2.34.74,4.69.98,6.22Z"/>
  <path d="M177.78,66.71c-.28-.83-.58-1.52-.74-2.23-.65-2.99-.86-5.96-.22-9.01.59-2.82,2.39-4.74,4.41-6.41,1.98-1.64,4.27-2.93,6.49-4.27,3.19-1.92,6.45-3.76,9.68-5.61.48-.27.99-.52,1.51-.7,1.61-.57,2.99-1.48,4.42-2.43,4.63-3.1,9.59-3.17,14.63-1.03,1.96.84,3.35,2.37,4.24,4.28.84,1.8-.41,4.67-2.63,5.18-3.6.83-6.22,3.41-9.56,4.75-3.84,1.54-7.28,4.04-10.93,6.06-6.13,3.39-12.29,6.73-18.44,10.08-.85.46-1.75.84-2.84,1.35Z"/>
  <path d="M251.51,96.39c-.39-1.33.43-2.67,1.52-3.87,1.79-1.95,3.55-3.94,5.47-5.77,2.04-1.94,4.47-2.69,7.31-1.82,1.95.6,3.94,1.16,5.95,1.5,3.05.51,4.76,2.53,5.68,5.15.94,2.68,1.55,5.5,2.07,8.29.4,2.13-.47,4.05-1.87,5.66-1.54,1.78-3.1,3.54-4.78,5.19-1.48,1.45-3.46,1.99-5.44,1.79-2.88-.29-5.74-.8-8.57-1.43-1.9-.42-3.48-1.62-4.31-3.39-1.63-3.44-2.94-7.01-3.03-11.32Z"/>
  <path d="M170.7,323.72c-.22.55-.34.8-.42,1.07-1.26,4.37-2.51,8.74-3.79,13.11-.14.48-.35.99-.67,1.35-.77.85-2.02.67-2.37-.41-.89-2.71-1.73-5.44-2.45-8.21-.62-2.39-.93-4.85-1.56-7.24-.33-1.25-1.03-2.4-1.65-3.78.66-.1,1.45-.34,2.19-.26.36.04.84.65.95,1.08,1.14,4.33,2.21,8.68,3.32,13.02.12.45.37.87.56,1.3.14,0,.27,0,.41,0,.37-1.33.77-2.65,1.1-3.99.68-2.78,1.3-5.57,2-8.34.18-.69.46-1.42.92-1.95.49-.57,1.23-1.27,1.86-1.26.52,0,1.26.86,1.49,1.5.6,1.64.95,3.36,1.44,5.04.77,2.66,1.56,5.32,2.35,7.98.09.3.27.57.4.86.13,0,.26,0,.38,0,.49-2.57.96-5.14,1.49-7.7.15-.74.52-1.43.74-2.15.39-1.26.75-2.52,1.11-3.78.07-.25.08-.51.16-.75.32-.96,1.04-1.18,1.94-.98,1.01.23.8,1.03.62,1.65-.52,1.85-1.18,3.65-1.71,5.5-1.1,3.89-2.15,7.8-3.22,11.7-.25.91-.53,1.7-1.76,1.61-1.11-.08-1.39-.83-1.61-1.69-.74-2.85-1.41-5.71-2.23-8.54-.53-1.83-1.26-3.61-2.01-5.72Z"/>
  <path d="M317.29,324.53c0,1.35.02,2.7,0,4.05-.05,3.25-.17,6.5-.13,9.75.02,1.43-.94,1.13-1.71,1.26-.93.15-1.03-.44-1.03-1.17.03-5.86.05-11.72.05-17.58,0-.77.15-1.34.96-1.57.84-.24,1.57-.24,2.13.62,2.51,3.87,5.03,7.73,7.58,11.57.64.97,1.37,1.88,2.06,2.82.14-.05.27-.11.41-.16.05-.44.14-.87.14-1.31.04-3.85.06-7.7.08-11.55.01-2.14.3-2.34,2.66-1.72,0,2.47-.01,4.98,0,7.5.02,3.63.08,7.27.08,10.9,0,.47-.27,1.3-.51,1.33-.89.13-1.94.95-2.71-.16-1.17-1.68-2.29-3.39-3.39-5.12-1.76-2.78-3.46-5.59-5.22-8.37-.28-.44-.67-.81-1.02-1.21-.15.04-.29.07-.44.11Z"/>
  <path d="M375.82,324.29c0,3.54,0,7.07,0,10.61,0,1.2-.06,2.4-.04,3.59.03,1.28-.91,1.12-1.69,1.19-.88.08-1.05-.47-1.05-1.22.02-5.82.04-11.64,0-17.46,0-1.09.55-1.5,1.44-1.81.87-.3,1.33.07,1.77.77,1.51,2.43,3.05,4.84,4.6,7.24,1.38,2.15,2.77,4.28,4.18,6.41.27.4.65.72,1.27,1.4.11-1.49.25-2.57.26-3.66.05-3.64.09-7.27.07-10.91,0-.79.15-1.21,1.02-1.24.91-.03,1.15.38,1.15,1.24,0,5.56.06,11.12.09,16.69,0,.21.04.44-.02.64-.2.62-.38,1.7-.66,1.74-.77.09-1.77-.06-2.35-.52-.84-.67-1.46-1.66-2.05-2.59-1.67-2.66-3.26-5.37-4.92-8.04-.88-1.41-1.83-2.76-2.75-4.14-.1.02-.21.04-.31.06Z"/>
  <path d="M351.57,334.53c0-1.91-.01-3.83,0-5.74.02-2.61.06-5.21.09-7.82.02-1.89.22-2.02,2.19-1.41,0,1.76,0,3.55,0,5.34-.01,4.4-.01,8.8-.08,13.2,0,.51-.35,1.37-.67,1.44-.55.12-1.29-.14-1.81-.46-.52-.32-.94-.87-1.28-1.41-1.52-2.36-2.98-4.76-4.49-7.13-.33-.53-.75-1.01-1.09-1.53-.7-1.05-1.4-2.12-2.08-3.18-.37-.58-.72-1.19-1.35-1.69-.02.4-.06.8-.06,1.2,0,3.98-.01,7.95-.01,11.93q0,2.35-2.57,2.26c-.06-.33-.18-.69-.17-1.05.02-5.9.06-11.79.09-17.69,0-.67-.03-1.32.84-1.46.79-.13,1.58-.39,2.17.51,1.49,2.29,3.04,4.54,4.52,6.84,1.4,2.19,2.72,4.42,4.11,6.62.33.51.79.94,1.19,1.41.16-.06.32-.12.48-.18Z"/>
  <path d="M411.65,330.88c-1.72-.1-3.45-.21-5.19-.32-.25-.02-.54-.02-.75-.13-.24-.13-.55-.36-.58-.57-.02-.2.25-.55.47-.63.59-.21,1.22-.43,1.85-.45,1.79-.06,3.59,0,5.39-.03.99-.02,1.46.46,1.46,1.37-.01,2.82-.05,5.64-.17,8.46-.02.38-.59.74-.91,1.1-.34-.42-.76-.8-1-1.27-.17-.34-.11-.79-.19-1.48-.7.45-1.21.72-1.65,1.06-4.73,3.65-11.71,1.66-13.67-4.01-1.34-3.88-1.01-7.76,1.28-11.19,1.98-2.96,5.04-4.21,8.58-3.77,3.3.41,5.59,2.38,7.01,5.35.15.32-.07.81-.12,1.23-.69-.08-1.43-.03-2.04-.3-.39-.17-.59-.8-.84-1.25-.82-1.48-2.04-2.39-3.75-2.56-2.3-.22-4.52-.29-6.14,1.87-1.99,2.65-2.93,5.47-1.93,8.75.09.28.22.55.32.84,1.7,5.17,6.28,5.68,9.97,3.59,1.65-.93,2.93-3.67,2.61-5.66Z"/>
  <path d="M283.83,339.44c-.76,0-1.52.15-2.16-.05-.44-.14-.96-.73-1.05-1.19-.35-1.8-.53-3.63-.79-5.44-.3-2.08-.57-2.33-2.69-2.34-1.97,0-3.93.08-5.9.05-.9-.01-1.19.3-1.19,1.19.02,2.22-.1,4.44-.04,6.66.03,1.12-.57,1.24-1.4,1.3-1.05.08-.89-.65-.9-1.28-.05-5.94-.07-11.88-.16-17.81-.01-.96.21-1.24,1.21-1.22,2.73.06,5.47-.11,8.2.01,1.23.06,2.5.46,3.65.96,1.61.69,2.52,1.92,2.32,3.85-.17,1.63.18,3.34-1.11,4.74-.19.21-.09.82.05,1.17.68,1.73,1.02,3.48,1.04,5.35.01,1.27.55,2.54.92,4.06ZM270.2,328.69c.46,0,1,.01,1.54,0,1.96-.06,3.92-.12,5.88-.19,2.16-.07,2.51-.38,2.66-2.52.04-.55.02-1.11-.08-1.65-.32-1.74-.74-2.23-2.48-2.35-2.16-.15-4.34-.16-6.51-.12-.34,0-.96.53-.97.83-.09,1.94-.05,3.89-.05,6.01Z"/>
  <path d="M241.1,339.88c-2.95.18-5.42-.83-7.18-3.19-.53-.71-.76-1.83-.67-2.72.05-.49.98-1.11,1.62-1.27.82-.2.93.63,1.05,1.28.46,2.35,2.92,3.98,5.56,3.61,1.01-.14,2.01-.41,2.97-.75,1.09-.39,2-1.04,2-2.37,0-1.36-.54-2.51-1.79-3.01-1.41-.56-2.93-.86-4.41-1.23-1.28-.32-2.63-.44-3.84-.92-2.96-1.16-3.92-4.94-2.01-7.5,2.79-3.71,9.56-4.01,12.6-.48.58.68.91,1.62,1.16,2.5.12.42-.13,1.33-.38,1.4-.55.15-1.26.02-1.79-.22-.35-.16-.63-.71-.74-1.13-.32-1.22-1.09-1.95-2.29-2.13-1.17-.17-2.38-.36-3.55-.27-1.56.12-2.91,1.55-2.91,2.79,0,1.78.96,3.02,2.73,3.38,1.59.33,3.2.56,4.79.87,3.64.7,5.12,2.97,4.35,6.65-.58,2.76-2.02,4.11-4.85,4.5-.8.11-1.62.13-2.43.2Z"/>
  <path d="M203.37,339.71c-.18-.23-.69-.62-.87-1.13-.5-1.45-.83-2.96-1.33-4.41-.11-.33-.59-.74-.91-.75-2.3-.06-4.61-.05-6.91.03-.33.01-.81.45-.94.8-.53,1.39-.98,2.82-1.42,4.25-.37,1.19-.98,1.54-2.1.99-.28-.14-.59-.72-.51-1.01.33-1.32.74-2.63,1.22-3.91.76-1.99,1.63-3.94,2.41-5.93,1.06-2.7,2.07-5.42,3.12-8.12.66-1.71,2.09-1.95,3.21-.49.38.49.6,1.12.84,1.7.41,1,.81,2.01,1.18,3.02.59,1.64,1.1,3.32,1.73,4.94.96,2.46,2.01,4.88,3.01,7.32.1.24.18.48.26.72.39,1.37-.12,2.02-1.99,1.98ZM193.81,330.84h5.8c-.9-2.88-1.73-5.57-2.57-8.26-.13.01-.26.03-.4.04-.92,2.68-1.85,5.36-2.83,8.22Z"/>
  <path d="M134.63,339.39c-2.18.46-2.38.35-3.12-1.5-.49-1.23-.97-2.47-1.56-3.65-.18-.36-.71-.76-1.09-.77-2.09-.09-4.19-.1-6.28-.03-.36.01-.88.47-1.03.85-.56,1.34-.94,2.74-1.5,4.08-.19.47-.62.97-1.06,1.17-.4.17-1.02.04-1.44-.17-.16-.08-.14-.78-.01-1.13.85-2.46,1.76-4.9,2.63-7.35.67-1.89,1.27-3.81,2.02-5.66.68-1.7,1.54-3.32,2.3-4.99.4-.88,1.06-1.1,1.97-1.04.89.06,1.21.57,1.48,1.33,2.1,5.86,4.24,11.72,6.36,17.58.14.4.22.81.35,1.3ZM126,322.93c-.13.02-.26.03-.39.05-.96,2.6-1.92,5.2-2.93,7.92h6.25c-1.02-2.77-1.98-5.37-2.93-7.96Z"/>
  <path d="M306.4,319.33c0,1.39,0,2.7,0,4.01-.02,3.51.03,7.02-.09,10.52-.1,2.74-3.14,5.66-5.88,5.86-.43.03-.86.01-1.28.04-4.8.36-7.14-1.84-8.4-7.09-.09-.4.04-.84.04-1.27-.02-1.69-.09-3.39-.09-5.08,0-2.12-.02-4.25.14-6.37.02-.28,1.04-.6,1.64-.7.7-.12.93.37.92,1.05-.02,2.78-.01,5.56-.01,8.34,0,1.2,0,2.4.02,3.59.03,2.48,1.58,4.53,3.99,5.32,1.58.52,4.75-.62,5.79-2.26.46-.71.74-1.66.76-2.51.07-3.85.03-7.7.02-11.55,0-1.99.02-2.02,2.45-1.91Z"/>
  <path d="M210.17,319.7c1.65-.81,2.29-.81,3.19.53,1.6,2.37,3,4.86,4.5,7.3.28.45.61.87.88,1.26.2-.05.27-.04.28-.07,1.32-2.15,2.62-4.3,3.95-6.44.55-.89,1.09-1.81,1.8-2.56.31-.32,1.07-.44,1.55-.33,1.25.27,1.33.6.63,1.64-2.07,3.13-4.18,6.23-6.18,9.4-.42.67-.61,1.57-.67,2.39-.13,1.96-.1,3.93-.19,5.89-.02.35-.33.98-.5.97-.54-.01-1.37-.1-1.55-.45-.38-.71-.69-1.67-.54-2.42.76-3.75-.49-6.92-2.55-9.91-.07-.11-.12-.23-.19-.33-1.41-2.1-2.82-4.2-4.22-6.3-.09-.13-.11-.31-.19-.55Z"/>
  <path d="M140.61,339.4v-19.96c.47-.06.8-.1,1.13-.14,1.07-.12,1.49.24,1.47,1.42-.04,4.96.05,9.92.02,14.87,0,.96.29,1.29,1.22,1.29,2.61,0,5.21.08,7.82.05.99-.01,1.23.45,1.29,1.31.06.91-.48,1.14-1.18,1.15-3.88.02-7.76.01-11.79.01Z"/>
  <path d="M364.57,319.57c0,3.08-.02,6.11,0,9.14.02,3.25.05,6.5.14,9.74.02.82-.14,1.18-1.03,1.16-.82-.02-1.42-.09-1.41-1.14.03-5.85,0-11.71.07-17.56.02-1.89.13-1.89,2.22-1.34Z"/>
</svg>